<?xml version="1.0" encoding="UTF-8"?>
<svg width="20px" height="20px" viewBox="0 0 20 20" version="1.1" xmlns="http://www.w3.org/2000/svg" xmlns:xlink="http://www.w3.org/1999/xlink">
    <!-- Generator: sketchtool 59.1 (101010) - https://sketch.com -->
    <title>1EA582D6-750D-4D39-BDA6-E13A7A7819BC</title>
    <desc>Created with sketchtool.</desc>
    <defs>
        <polygon id="path-1" points="0 0 20 0 20 19.9999 0 19.9999"></polygon>
    </defs>
    <g id="Page-1" stroke="none" stroke-width="1" fill="none" fill-rule="evenodd">
        <g id="Landing-4" transform="translate(-1210.000000, -956.000000)">
            <g id="Group-2" transform="translate(992.000000, 741.000000)">
                <g id="icon-/-outline-/-24-/-trash" transform="translate(216.000000, 213.000000)">
                    <g id="Group-3" transform="translate(2.000000, 2.000000)">
                        <mask id="mask-2" fill="white">
                            <use xlink:href="#path-1"></use>
                        </mask>
                        <g id="Clip-2"></g>
                        <path d="M19,3.9999 L18,3.9999 L14,3.9999 L14,2.3279 C14,1.0439 12.879,-0.0001 11.5,-0.0001 L8.5,-0.0001 C7.121,-0.0001 6,1.0439 6,2.3279 L6,3.9999 L2,3.9999 L1,3.9999 C0.45,3.9999 0,4.4499 0,4.9999 C0,5.5499 0.45,5.9999 1,5.9999 L2,5.9999 L2,16.9999 C2,18.6539 3.346,19.9999 5,19.9999 L15,19.9999 C16.654,19.9999 18,18.6539 18,16.9999 L18,5.9999 L19,5.9999 C19.55,5.9999 20,5.5499 20,4.9999 C20,4.4499 19.55,3.9999 19,3.9999 L19,3.9999 Z M8,2.3279 C8,2.1729 8.214,1.9999 8.5,1.9999 L11.5,1.9999 C11.786,1.9999 12,2.1729 12,2.3279 L12,3.9999 L8,3.9999 L8,2.3279 Z M16,16.9999 C16,17.5509 15.552,17.9999 15,17.9999 L5,17.9999 C4.448,17.9999 4,17.5509 4,16.9999 L4,5.9999 L16,5.9999 L16,16.9999 Z M14,13.9999 C14,14.5499 13.55,14.9999 13,14.9999 C12.45,14.9999 12,14.5499 12,13.9999 L12,9.9999 C12,9.4499 12.45,8.9999 13,8.9999 C13.55,8.9999 14,9.4499 14,9.9999 L14,13.9999 Z M8,13.9999 C8,14.5499 7.55,14.9999 7,14.9999 C6.45,14.9999 6,14.5499 6,13.9999 L6,9.9999 C6,9.4499 6.45,8.9999 7,8.9999 C7.55,8.9999 8,9.4499 8,9.9999 L8,13.9999 Z" id="Fill-1" fill="#737F87" mask="url(#mask-2)"></path>
                    </g>
                    <rect id="Rectangle" fill="#D8D8D8" opacity="0" x="0" y="0" width="24" height="24"></rect>
                </g>
            </g>
        </g>
    </g>
</svg>